<svg version="1.1" xmlns="http://www.w3.org/2000/svg" xmlns:xlink="http://www.w3.org/1999/xlink" viewBox="0 0 172 172"><g fill="none" fill-rule="nonzero" stroke="none" stroke-width="1" stroke-linecap="butt" stroke-linejoin="miter" stroke-miterlimit="10" stroke-dasharray="" stroke-dashoffset="0" font-family="none" font-weight="none" font-size="none" text-anchor="none" style="mix-blend-mode: normal"><path d="M0,172v-172h172v172z" fill="none"></path><g fill="#2ecc71"><path d="M141.11015,5.38025c-2.75284,0.00004 -5.50533,1.04744 -7.60124,3.14285l-35.22357,35.22357l-11.2375,-5.82051c-0.77501,-0.40111 -1.69693,-0.40111 -2.47295,0l-77.74985,40.3125c-0.89124,0.46225 -1.45038,1.38288 -1.45004,2.38699c0,1.00412 0.56011,1.92377 1.45135,2.38568l16.13878,8.36104l-16.13943,8.36694c-0.89124,0.46191 -1.45103,1.38222 -1.4507,2.38634c0.00034,1.00412 0.56011,1.92442 1.45135,2.38634l16.13747,8.36038l-16.13812,8.36694c-0.89124,0.46225 -1.4507,1.38288 -1.4507,2.38699c0,1.00412 0.56011,1.92377 1.45135,2.38568l77.81284,40.3125c0.38767,0.20089 0.81251,0.30116 1.2368,0.30116c0.4216,0 0.84327,-0.09934 1.22893,-0.29788l78.06151,-40.14781c0.89427,-0.4599 1.45723,-1.37988 1.45857,-2.38568c0.00134,-1.00513 -0.55811,-1.92769 -1.4507,-2.39028l-16.20177,-8.39516l16.19389,-8.32889c0.89393,-0.46057 1.45723,-1.38056 1.45857,-2.38568c0.00134,-1.00546 -0.55811,-1.92835 -1.4507,-2.39093l-16.20177,-8.3945l16.19389,-8.32889c0.89427,-0.4599 1.45723,-1.38054 1.45857,-2.38634c0.00134,-1.0058 -0.55843,-1.92769 -1.45135,-2.39027l-46.86066,-24.2787l30.39841,-30.39841c4.19116,-4.19149 4.19116,-11.01099 0,-15.20248v-0.00066c-2.09558,-2.09558 -4.8484,-3.14289 -7.60124,-3.14285zM141.11015,10.75262c1.3765,0 2.75316,0.52429 3.80095,1.57208c2.09524,2.09558 2.09558,5.506 0,7.60124l-3.80095,3.80095l-7.60124,-7.6019l3.80029,-3.80029c1.04779,-1.04779 2.42444,-1.57208 3.80095,-1.57208zM129.70796,19.92595l1.90015,1.90015l-28.50548,28.50548c-1.0498,1.0498 -1.0498,2.75114 0,3.80095c0.52473,0.52473 1.2128,0.7867 1.9008,0.7867c0.688,0 1.37541,-0.26196 1.90015,-0.7867l28.50548,-28.50548l1.90015,1.90015l-34.20592,34.20592l-7.60124,-7.60124zM85.81235,43.33987l8.48505,4.39474l-4.49645,4.4971c-0.29495,0.29529 -0.51754,0.65473 -0.64957,1.05046l-5.70109,17.10329c-0.32183,0.96582 -0.07035,2.03057 0.64957,2.75049c0.5123,0.51197 1.19903,0.78735 1.9008,0.78735c0.2842,0 0.57054,-0.04507 0.84903,-0.13779l17.10329,-5.70109c0.39573,-0.13236 0.75551,-0.35461 1.05046,-0.64957l9.32227,-9.32227l43.75258,22.66856l-16.24573,8.35514c-0.00336,0.00168 -0.00648,0.00323 -0.00984,0.00525l-55.94212,28.77121l-71.97723,-37.28906zM92.87557,59.10663l5.2523,5.25296l-7.87878,2.62583zM56.4375,69.875c-4.44546,0 -8.0625,3.61704 -8.0625,8.0625v2.6875c0,4.44546 3.61704,8.0625 8.0625,8.0625h51.0625c1.48182,0 2.6875,1.20568 2.6875,2.6875c0,1.48182 -1.20568,2.6875 -2.6875,2.6875h-37.625c-1.48417,0 -2.6875,1.20333 -2.6875,2.6875c0,1.48417 1.20333,2.6875 2.6875,2.6875h37.625c4.44546,0 8.0625,-3.61704 8.0625,-8.0625c0,-4.44546 -3.61704,-8.0625 -8.0625,-8.0625h-51.0625c-1.48182,0 -2.6875,-1.20568 -2.6875,-2.6875v-2.6875c0,-1.48182 1.20568,-2.6875 2.6875,-2.6875h24.1875c1.48417,0 2.6875,-1.20333 2.6875,-2.6875c0,-1.48417 -1.20333,-2.6875 -2.6875,-2.6875zM28.80664,94.39909l55.83255,28.92475c0.38767,0.20089 0.81186,0.30116 1.23615,0.30116c0.4216,0 0.84327,-0.09934 1.22893,-0.29788l56.0038,-28.80336l14.97021,7.75674l-16.24638,8.35579c-0.00336,0.00168 -0.00583,0.00323 -0.00919,0.00525l-55.94278,28.77121l-71.97658,-37.2884zM28.80533,115.89778l55.83386,28.92606c0.38767,0.20089 0.81251,0.30051 1.2368,0.30051c0.4216,0 0.84327,-0.09869 1.22893,-0.29723l56.0038,-28.80336l14.97021,7.7574l-72.19901,37.13159l-71.97658,-37.28906z"></path></g></g></svg>