<?xml version="1.0" encoding="iso-8859-1"?>
<!-- Generator: Adobe Illustrator 19.0.0, SVG Export Plug-In . SVG Version: 6.00 Build 0)  -->
<svg version="1.1" id="Layer_1" xmlns="http://www.w3.org/2000/svg" xmlns:xlink="http://www.w3.org/1999/xlink" x="0px" y="0px"
	 viewBox="0 0 495.996 495.996" style="enable-background:new 0 0 495.996 495.996;" xml:space="preserve">
<g>
	<g>
		<path d="M103.736,227.184c-4.336-4.344-12.124-4.344-16.424,0c-2.176,2.168-3.412,5.152-3.412,8.216
			c0,3.064,1.24,6.044,3.412,8.212c2.168,2.176,5.156,3.416,8.216,3.416s6.044-1.24,8.208-3.416
			c2.176-2.168,3.416-5.148,3.416-8.212C107.152,232.336,105.908,229.352,103.736,227.184z"/>
	</g>
</g>
<g>
	<g>
		<g>
			<path d="M135.672,374.552c-4.068,4.96-3.372,12.288,1.552,16.392c2.168,1.784,4.804,2.636,7.4,2.636
				c3.372,0,6.664-1.436,8.988-4.224c4.076-4.96,3.372-12.28-1.588-16.356C147.104,368.892,139.74,369.596,135.672,374.552z"/>
			<path d="M138.852,247.028c6.388,0,11.624-5.196,11.624-11.624c0-6.432-5.232-11.624-11.624-11.624
				c-6.432,0-11.624,5.192-11.624,11.624C127.228,241.832,132.416,247.028,138.852,247.028z"/>
			<path d="M142.108,422.096c-0.04-6.388-5.312-11.704-11.744-11.664c-6.392,0.036-11.548,5.412-11.508,11.808
				c0.036,6.396,5.228,11.764,11.628,11.764c0.036,0,0.08,0,0.116,0C136.992,434.004,142.148,428.532,142.108,422.096z"/>
			<path d="M250.916,288.296c1.32,0,2.596-0.232,3.916-0.66c6.048-2.168,9.22-8.792,7.052-14.84
				c-2.128-6.044-8.796-9.224-14.84-7.092c-6.044,2.172-9.224,8.796-7.056,14.84C241.66,285.312,246.148,288.296,250.916,288.296z"
				/>
			<path d="M137.804,452.832c-4.88,4.184-5.46,11.512-1.316,16.392c2.324,2.712,5.58,4.068,8.836,4.068
				c2.676,0,5.384-0.892,7.556-2.788c4.884-4.184,5.464-11.512,1.28-16.392C150.012,449.228,142.648,448.688,137.804,452.832z"/>
			<path d="M182.132,247.028c6.432,0,11.624-5.196,11.624-11.624c0-6.432-5.192-11.624-11.624-11.624
				c-6.392,0-11.624,5.192-11.624,11.624C170.508,241.832,175.74,247.028,182.132,247.028z"/>
			<path d="M218.016,253.964c1.864,1.084,3.876,1.628,5.892,1.628c3.988,0,7.864-2.056,10.036-5.736
				c3.256-5.544,1.392-12.668-4.108-15.928c-5.54-3.256-12.672-1.396-15.924,4.108C210.656,243.576,212.476,250.708,218.016,253.964
				z"/>
			<path d="M268.82,471.784c-6.432,0-11.624,5.192-11.624,11.624c0,6.428,5.192,11.624,11.624,11.624s11.624-5.196,11.624-11.624
				C280.444,476.976,275.252,471.784,268.82,471.784z"/>
			<path d="M355.424,471.784c-6.388,0-11.624,5.192-11.624,11.624c0,6.428,5.236,11.624,11.624,11.624
				c6.432,0,11.624-5.196,11.624-11.624C367.048,476.976,361.856,471.784,355.424,471.784z"/>
			<path d="M184.184,472.752c-0.04,0-0.04,0-0.04,0c-6.316-3.872-12.32,2.42-13.364,8.74c-1.048,6.352,3.256,11.48,9.572,12.528
				c0.66,0.12,1.28,0.572,1.932,0.572c5.58,0,10.5-3.608,11.432-9.268C194.764,478.972,190.5,472.752,184.184,472.752z"/>
			<path d="M261.456,323.172c2.248-6.008-0.812-12.712-6.82-14.956c-6.004-2.248-12.712,0.816-14.96,6.816
				c-2.248,6.008,0.816,12.716,6.824,14.96c1.356,0.504,2.712,0.736,4.068,0.736C255.296,330.728,259.708,327.86,261.456,323.172z"
				/>
			<path d="M312.144,471.784c-6.432,0-11.624,5.192-11.624,11.624c0,6.428,5.192,11.624,11.624,11.624
				c6.392,0,11.624-5.196,11.624-11.624C323.768,476.976,318.54,471.784,312.144,471.784z"/>
			<path d="M179.076,348.976c-6.316,1.164-10.468,7.248-9.304,13.564c1.012,5.584,7.24,9.492,12.744,9.492
				c0.7,0,3.484-0.032,3.484-0.188c0,0.032,0,0.032,0,0.032c3.876-1.16,9.148-7.244,7.992-13.564
				C192.824,352,185.392,347.808,179.076,348.976z"/>
			<path d="M225.536,471.784c-6.432,0-11.624,5.192-11.624,11.624c0,6.428,5.192,11.624,11.624,11.624
				c6.388,0,11.624-5.196,11.624-11.624C237.16,476.976,231.928,471.784,225.536,471.784z"/>
			<path d="M223.052,363.012c1.94,0,3.916-0.508,5.7-1.512c5.58-3.184,7.552-10.268,4.38-15.852
				c-3.18-5.616-10.268-7.552-15.848-4.38c-5.584,3.14-7.52,10.264-4.38,15.848C215.076,360.876,218.988,363.008,223.052,363.012z"
				/>
		</g>
	</g>
</g>
<g>
	<g>
		<path d="M407.24,475.188c-4.344-4.344-12.128-4.344-16.468,0c-2.132,2.132-3.376,5.152-3.376,8.216
			c0,3.064,1.244,6.044,3.376,8.212c2.168,2.172,5.188,3.416,8.248,3.416c3.024,0,6.052-1.244,8.22-3.416
			c2.172-2.168,3.408-5.148,3.408-8.212C410.648,480.34,409.412,477.356,407.24,475.188z"/>
	</g>
</g>
<g>
	<g>
		<path d="M96.264,0c-52.716,0-95.6,42.888-95.6,95.604c0,94.968,92.68,151.292,93.62,151.848C94.892,247.82,95.58,248,96.268,248
			c0.688,0,1.372-0.18,1.984-0.548c0.94-0.556,93.62-56.88,93.62-151.848C191.864,42.888,148.98,0,96.264,0z M95.536,162.612
			c-36.292,0-65.816-29.524-65.816-65.816c0-36.296,29.524-65.816,65.816-65.816c36.288,0.004,65.812,29.52,65.812,65.816
			C161.348,133.088,131.824,162.612,95.536,162.612z"/>
	</g>
</g>
<g>
	<g>
		<path d="M399.732,247.996c-52.716,0-95.6,42.888-95.6,95.604c0,94.968,92.68,151.292,93.616,151.848
			c0.608,0.368,1.296,0.548,1.984,0.548c0.684,0,1.372-0.18,1.98-0.548c0.94-0.556,93.62-56.88,93.62-151.848
			C495.332,290.884,452.44,247.996,399.732,247.996z M399.004,410.608c-36.292,0-65.816-29.524-65.816-65.816
			c0-36.292,29.524-65.816,65.816-65.816c36.284,0.004,65.808,29.524,65.808,65.816S435.288,410.608,399.004,410.608z"/>
	</g>
</g>
<g>
</g>
<g>
</g>
<g>
</g>
<g>
</g>
<g>
</g>
<g>
</g>
<g>
</g>
<g>
</g>
<g>
</g>
<g>
</g>
<g>
</g>
<g>
</g>
<g>
</g>
<g>
</g>
<g>
</g>
</svg>
