<svg version="1.1" xmlns="http://www.w3.org/2000/svg" xmlns:xlink="http://www.w3.org/1999/xlink" viewBox="0 0 172 172"><g fill="none" fill-rule="nonzero" stroke="none" stroke-width="1" stroke-linecap="butt" stroke-linejoin="miter" stroke-miterlimit="10" stroke-dasharray="" stroke-dashoffset="0" font-family="none" font-weight="none" font-size="none" text-anchor="none" style="mix-blend-mode: normal"><path d="M0,172v-172h172v172z" fill="none"></path><g fill="#ffffff"><path d="M28.88997,7.05403c-4.63056,0 -8.39844,3.76788 -8.39844,8.39844c0,4.63056 3.76787,8.39844 8.39844,8.39844c4.63056,0 8.39844,-3.76787 8.39844,-8.39844c0,-4.63056 -3.76788,-8.39844 -8.39844,-8.39844zM50.72591,7.05403c-1.85505,0 -3.35937,1.50433 -3.35937,3.35938v37.19983h-13.4375v-6.71875c0,-7.67348 -5.89477,-13.68355 -13.42044,-13.68355c-7.41918,0 -13.45456,6.30668 -13.45456,14.06214c0.00672,83.10052 -0.01093,102.90813 0.02165,103.21417c0.37087,11.68256 8.97711,20.45872 20.1346,20.45872h134.37566c1.85505,0 3.35938,-1.50433 3.35938,-3.35937v-110.61464c0,-1.85505 -1.50433,-3.35937 -3.35937,-3.35937h-53.75066v-27.12105c0,-7.40944 -6.02806,-13.4375 -13.4375,-13.4375c-7.40944,0 -13.4375,6.02806 -13.4375,13.4375v27.1217h-6.71875v-37.19983c0,-1.85505 -1.50433,-3.35937 -3.35937,-3.35937zM153.1875,7.05403c-6.48259,0 -11.75781,5.27355 -11.75781,11.75781c0,6.48259 5.27523,11.75781 11.75781,11.75781c6.48259,0 11.75781,-5.27523 11.75781,-11.75781c0,-6.48427 -5.27523,-11.75781 -11.75781,-11.75781zM131.35156,10.41341c-1.85533,0 -3.35937,1.50404 -3.35937,3.35938c0,1.85533 1.50404,3.35938 3.35938,3.35938c1.85533,0 3.35938,-1.50404 3.35938,-3.35937c0,-1.85533 -1.50404,-3.35937 -3.35937,-3.35937zM28.88997,13.77278c0.92685,0 1.67969,0.75284 1.67969,1.67969c0,0.92685 -0.75284,1.67969 -1.67969,1.67969c-0.92685,0 -1.67969,-0.75284 -1.67969,-1.67969c0,-0.92685 0.75284,-1.67969 1.67969,-1.67969zM67.52278,13.77278v70.54753h-13.4375v-6.71875h3.35938c1.85505,0 3.35938,-1.50433 3.35938,-3.35937c0,-1.85505 -1.50433,-3.35937 -3.35937,-3.35937h-3.35937v-3.35937h6.71875c1.85505,0 3.35938,-1.50433 3.35938,-3.35937c0,-1.85505 -1.50433,-3.35937 -3.35938,-3.35937h-6.71875v-3.35937h3.35938c1.85505,0 3.35938,-1.50433 3.35938,-3.35937c0,-1.85505 -1.50433,-3.35937 -3.35937,-3.35937h-3.35937v-3.35937h6.71875c1.85505,0 3.35938,-1.50433 3.35938,-3.35937c0,-1.85505 -1.50433,-3.35937 -3.35938,-3.35937h-6.71875v-3.35937h3.35938c1.85505,0 3.35938,-1.50433 3.35938,-3.35937c0,-1.85505 -1.50433,-3.35937 -3.35937,-3.35937h-3.35937v-3.35937h6.71875c1.85505,0 3.35938,-1.50433 3.35938,-3.35937c0,-1.85538 -1.50433,-3.35937 -3.35938,-3.35937h-6.71875v-6.71875zM94.39778,13.77278c3.70539,0 6.71875,3.01336 6.71875,6.71875v3.35938h-13.4375v-3.35937c0,-3.70573 3.01336,-6.71875 6.71875,-6.71875zM153.1875,13.77278c2.77854,0 5.03906,2.26052 5.03906,5.03906c0,2.77854 -2.26052,5.03906 -5.03906,5.03906c-2.77854,0 -5.03906,-2.26052 -5.03906,-5.03906c0,-2.77854 2.26052,-5.03906 5.03906,-5.03906zM40.64778,23.85091c-1.85533,0 -3.35937,1.50404 -3.35937,3.35938c0,1.85533 1.50404,3.35938 3.35938,3.35938c1.85533,0 3.35938,-1.50404 3.35938,-3.35937c0,-1.85533 -1.50404,-3.35937 -3.35937,-3.35937zM122.95313,23.85091c-4.6309,0 -8.39909,3.76787 -8.39909,8.39844c0,4.63056 3.76819,8.39844 8.39909,8.39844c4.63056,0 8.39844,-3.76788 8.39844,-8.39844c0,-4.63056 -3.76788,-8.39844 -8.39844,-8.39844zM87.67903,30.56966h13.4375v39.38277l-6.71875,11.19682l-6.71875,-11.19682zM122.95313,30.56966c0.92652,0 1.67969,0.75284 1.67969,1.67969c0,0.92685 -0.75317,1.67969 -1.67969,1.67969c-0.92719,0 -1.67969,-0.75284 -1.67969,-1.67969c0,-0.92685 0.7525,-1.67969 1.67969,-1.67969zM20.50793,33.92903c3.82028,0 6.70235,2.99368 6.70235,6.9648v92.01407c-4.29597,-2.75066 -9.38273,-2.57 -13.4375,-0.12269v-91.51213c0,-4.04973 3.02136,-7.34404 6.73515,-7.34404zM144.78906,33.92903c-1.85533,0 -3.35937,1.50404 -3.35937,3.35938c0,1.85533 1.50404,3.35938 3.35938,3.35938c1.85533,0 3.35938,-1.50404 3.35938,-3.35937c0,-1.85533 -1.50404,-3.35937 -3.35937,-3.35937zM74.24153,54.33133h6.71875v16.55148c0,0.60872 0.1662,1.20587 0.47963,1.72759l10.07812,16.79688c1.30075,2.16982 4.45503,2.17654 5.76015,0l10.07813,-16.79687c0.31343,-0.52171 0.47897,-1.11887 0.47897,-1.72759v-16.55083h50.39128v103.89523h-131.01628c-7.57002,0 -13.19488,-5.88103 -13.42635,-14.00702c0.31343,-3.71412 3.24133,-6.60393 6.724,-6.60393c3.41178,0 6.48453,3.3708 6.7076,7.36241c0.10179,1.81507 1.63691,3.22755 3.44795,3.1691c1.81742,-0.05106 3.26555,-1.53863 3.26555,-3.35806v-90.45773h13.4375v33.3477c0,1.85471 1.50433,3.35938 3.35938,3.35938h20.15625c1.85505,0 3.35938,-1.50466 3.35938,-3.35937zM141.42969,57.44466c-1.85533,0 -3.35937,1.50404 -3.35937,3.35938c0,1.85533 1.50404,3.35938 3.35938,3.35938c1.85533,0 3.35938,-1.50404 3.35938,-3.35938c0,-1.85533 -1.50404,-3.35937 -3.35937,-3.35937zM127.99219,67.52344c-1.85505,0 -3.35937,1.50433 -3.35937,3.35938v16.79688c0,1.85471 1.50433,3.35938 3.35938,3.35938c1.85505,0 3.35938,-1.50466 3.35938,-3.35937v-16.79687c0,-1.85505 -1.50433,-3.35937 -3.35937,-3.35937zM141.42969,67.52344c-1.85505,0 -3.35937,1.50433 -3.35937,3.35938v26.875c0,1.85471 1.50433,3.35938 3.35938,3.35938c1.85505,0 3.35938,-1.50466 3.35938,-3.35937v-26.875c0,-1.85505 -1.50433,-3.35937 -3.35937,-3.35937zM80.97734,86.9632c-0.47588,-0.0026 -0.95521,0.09564 -1.40608,0.29985c-1.19896,0.54455 -1.97035,1.74199 -1.97035,3.05887v61.18655c0,1.85505 1.50433,3.35938 3.35938,3.35938h69.92552c1.39918,0 2.65269,-0.86785 3.14416,-2.17834c0.49181,-1.31016 0.12145,-2.78896 -0.93104,-3.70909l-69.92552,-61.1859c-0.62022,-0.54233 -1.40293,-0.82698 -2.19606,-0.83131zM127.99219,94.39844c-1.85533,0 -3.35937,1.50404 -3.35937,3.35938c0,1.85533 1.50404,3.35938 3.35938,3.35938c1.85533,0 3.35938,-1.50404 3.35938,-3.35937c0,-1.85533 -1.50404,-3.35937 -3.35937,-3.35937zM84.31966,97.72632l57.6264,50.42212h-57.6264zM44.00716,104.47656c-1.85505,0 -3.35937,1.50466 -3.35937,3.35938v23.51563c0,1.85471 1.50433,3.35938 3.35938,3.35938c1.85505,0 3.35938,-1.50466 3.35938,-3.35937v-23.51562c0,-1.85471 -1.50433,-3.35937 -3.35937,-3.35937zM141.42969,104.47656c-1.85505,0 -3.35937,1.50466 -3.35937,3.35938v6.71875c0,1.85471 1.50433,3.35938 3.35938,3.35938c1.85505,0 3.35938,-1.50466 3.35938,-3.35937v-6.71875c0,-1.85471 -1.50433,-3.35937 -3.35937,-3.35937zM92.73581,112.875c-0.47564,-0.0024 -0.95531,0.0963 -1.40542,0.30051c-1.20064,0.54455 -1.97166,1.74065 -1.97166,3.05887v23.51563c0,1.85538 1.50433,3.35938 3.35938,3.35938h26.87566c1.39884,0 2.65235,-0.86751 3.14417,-2.17835c0.49215,-1.31083 0.12146,-2.78864 -0.9317,-3.70843l-26.875,-23.51562c-0.62022,-0.54338 -1.40267,-0.82798 -2.19541,-0.83197zM96.07747,123.63681l14.57457,12.75381h-14.57457zM54.08528,124.63281c-1.85505,0 -3.35937,1.50466 -3.35937,3.35938v20.15625c0,1.85538 1.50433,3.36003 3.35938,3.36003c1.85505,0 3.35938,-1.50465 3.35938,-3.36003v-20.15625c0,-1.85471 -1.50433,-3.35937 -3.35937,-3.35937zM44.00716,138.07031c-1.85533,0 -3.35937,1.50404 -3.35937,3.35938c0,1.85533 1.50404,3.35938 3.35938,3.35938c1.85533,0 3.35938,-1.50404 3.35938,-3.35937c0,-1.85533 -1.50404,-3.35937 -3.35937,-3.35937z"></path></g></g></svg>