<?xml version="1.0" encoding="iso-8859-1"?>
<!-- Generator: Adobe Illustrator 19.0.0, SVG Export Plug-In . SVG Version: 6.00 Build 0)  -->
<svg version="1.1" id="Layer_1" xmlns="http://www.w3.org/2000/svg" xmlns:xlink="http://www.w3.org/1999/xlink" x="0px" y="0px"
	 viewBox="0 0 512 512" style="enable-background:new 0 0 512 512;" xml:space="preserve">
<g>
	<g>
		<path d="M417.509,309.667c-0.002-0.002-55.625-55.625-55.625-55.625l92.008-92.008c0.009-0.009,46.19-46.19,46.19-46.19
			c7.685-7.685,11.918-17.939,11.918-28.869c0-10.932-4.233-21.185-11.918-28.87l-46.185-46.186C446.211,4.233,435.957,0,425.027,0
			c-10.932,0-21.185,4.232-28.871,11.919L257.959,150.115L110.238,2.396c-3.192-3.191-8.364-3.191-11.555,0L2.396,98.682
			c-3.191,3.191-3.191,8.364,0,11.554l130.389,130.389c1.596,1.595,3.688,2.393,5.778,2.393c2.091,0,4.182-0.797,5.778-2.393
			c3.191-3.191,3.191-8.364,0-11.554L19.728,104.459l11.554-11.554l124.612,124.611c1.596,1.595,3.688,2.393,5.778,2.393
			c2.09,0,4.182-0.797,5.778-2.393c3.191-3.191,3.191-8.364,0-11.554L42.837,81.35l61.623-61.624l19.142,19.142L106.27,56.201
			c-3.191,3.191-3.191,8.364,0,11.554c1.596,1.595,3.688,2.393,5.778,2.393c2.091,0,4.182-0.797,5.778-2.393l17.332-17.332
			l19.147,19.147l-17.332,17.332c-3.192,3.191-3.192,8.363-0.001,11.554c1.596,1.596,3.686,2.393,5.778,2.393
			c2.09,0,4.182-0.797,5.777-2.393l17.333-17.332l19.146,19.146l-17.333,17.333c-3.191,3.191-3.191,8.364,0,11.554
			c1.596,1.596,3.686,2.393,5.778,2.393c2.09,0,4.182-0.797,5.778-2.393l17.332-17.332l19.146,19.146l-17.332,17.333
			c-3.191,3.191-3.191,8.364,0,11.554c1.596,1.595,3.688,2.393,5.778,2.393c2.09,0,4.182-0.797,5.778-2.393l17.332-17.332
			l19.146,19.146L48.579,359.496c-0.216,0.216-0.415,0.442-0.601,0.675c-0.047,0.058-0.087,0.121-0.132,0.18
			c-0.138,0.183-0.27,0.367-0.391,0.559c-0.045,0.071-0.085,0.145-0.129,0.217c-0.111,0.188-0.216,0.38-0.31,0.575
			c-0.038,0.077-0.073,0.155-0.109,0.233c-0.09,0.202-0.171,0.404-0.244,0.611c-0.017,0.049-0.041,0.095-0.058,0.144L0.42,501.246
			c-0.978,2.936-0.215,6.172,1.974,8.361C3.952,511.164,6.04,512,8.173,512c0.864,0,1.736-0.137,2.583-0.419l138.556-46.186
			c0.053-0.017,0.102-0.044,0.156-0.062c0.199-0.071,0.395-0.149,0.59-0.235c0.084-0.037,0.167-0.075,0.249-0.115
			c0.19-0.093,0.376-0.194,0.56-0.303c0.076-0.045,0.154-0.088,0.229-0.135c0.187-0.119,0.368-0.248,0.547-0.383
			c0.063-0.047,0.129-0.09,0.19-0.139c0.232-0.186,0.459-0.385,0.674-0.6l197.824-197.824l19.146,19.146l-17.332,17.332
			c-3.191,3.191-3.191,8.364,0,11.554c1.596,1.595,3.688,2.393,5.778,2.393c2.09,0,4.182-0.797,5.778-2.393l17.332-17.332
			l19.146,19.146l-17.333,17.332c-3.191,3.191-3.191,8.364,0,11.554c1.596,1.596,3.686,2.393,5.778,2.393
			c2.091,0,4.182-0.797,5.778-2.393l17.332-17.332l19.146,19.146l-17.332,17.332c-3.192,3.191-3.192,8.363-0.001,11.554
			c1.596,1.596,3.686,2.393,5.778,2.393c2.091,0,4.182-0.797,5.777-2.393l17.333-17.332l19.147,19.146l-17.332,17.333
			c-3.191,3.191-3.191,8.364,0,11.554c1.596,1.595,3.688,2.393,5.778,2.393s4.182-0.797,5.778-2.393l17.332-17.332l19.143,19.142
			l-61.624,61.624L306.043,344.549c-3.192-3.191-8.364-3.191-11.555,0s-3.191,8.364,0,11.554l124.612,124.612l-11.554,11.554
			L282.929,367.66c-3.194-3.192-8.366-3.19-11.555,0c-3.191,3.191-3.191,8.364,0,11.554l130.389,130.39
			c1.596,1.596,3.686,2.393,5.778,2.393c2.09,0,4.182-0.797,5.778-2.393l96.288-96.287c1.532-1.532,2.392-3.61,2.392-5.777
			c0-2.167-0.861-4.245-2.392-5.777L417.509,309.667z M407.71,23.473c4.599-4.599,10.75-7.132,17.317-7.132
			c6.566,0,12.716,2.533,17.315,7.132l46.185,46.186c9.548,9.548,9.548,25.084,0,34.632l-40.408,40.408l-80.817-80.817
			L407.71,23.473z M21.09,490.911l13.746-41.235l27.489,27.49L21.09,490.911z M79.656,471.39l-39.044-39.045l17.315-51.946
			l73.676,73.676L79.656,471.39z M146.728,446.089l-80.817-80.817l259.045-259.046l34.632,34.631L117.858,382.589
			c-3.191,3.191-3.191,8.364,0,11.554c1.596,1.595,3.688,2.393,5.778,2.393c2.091,0,4.182-0.797,5.778-2.393l241.73-241.73
			l17.315,17.315c1.596,1.595,3.688,2.393,5.778,2.393s4.182-0.797,5.778-2.393c3.191-3.191,3.191-8.364,0-11.554l-23.091-23.091
			c-0.003-0.003-40.411-40.411-40.411-40.411l19.236-19.236l80.817,80.817L146.728,446.089z"/>
	</g>
</g>
<g>
</g>
<g>
</g>
<g>
</g>
<g>
</g>
<g>
</g>
<g>
</g>
<g>
</g>
<g>
</g>
<g>
</g>
<g>
</g>
<g>
</g>
<g>
</g>
<g>
</g>
<g>
</g>
<g>
</g>
</svg>
