<svg version="1.1" xmlns="http://www.w3.org/2000/svg" xmlns:xlink="http://www.w3.org/1999/xlink" viewBox="0 0 172 172"><g fill="none" fill-rule="nonzero" stroke="none" stroke-width="1" stroke-linecap="butt" stroke-linejoin="miter" stroke-miterlimit="10" stroke-dasharray="" stroke-dashoffset="0" font-family="none" font-weight="none" font-size="none" text-anchor="none" style="mix-blend-mode: normal"><path d="M0,172v-172h172v172z" fill="none"></path><g fill="#666666"><path d="M86,5.375c-10.32571,0 -18.8125,8.4002 -18.8125,18.72523v40.39977h-27.63414c-10.33707,0.01107 -18.71417,8.38816 -18.72523,18.72523v16.17159c-0.00309,1.49218 1.19544,2.70885 2.6875,2.72818h4.03125v61.8125c0,1.48427 1.20323,2.6875 2.6875,2.6875h59.125c0.95385,-0.00034 1.83605,-0.50624 2.3181,-1.32931l11.42516,-19.50734l11.13318,19.48241c0.47865,0.83775 1.36966,1.35462 2.3345,1.35425h25.19531c1.48427,0 2.6875,-1.20323 2.6875,-2.6875v-61.8125h4.03125c1.49206,-0.01933 2.69059,-1.236 2.6875,-2.72818v-16.17159c-0.01107,-10.33707 -8.38816,-18.71417 -18.72523,-18.72523h-27.63414v-40.39977c0,-10.32504 -8.48679,-18.72523 -18.8125,-18.72523zM86.39236,10.66864c7.26537,0.21223 13.04504,6.16313 13.04514,13.43159v43.08727c-0.01954,0.70358 0.24538,1.38533 0.73486,1.89111c0.48948,0.50578 1.16219,0.79288 1.86603,0.79639h30.40825c7.36969,0.00829 13.34195,5.98054 13.35023,13.35023v13.52477h-119.59375v-13.52477c0.00829,-7.36969 5.98054,-13.34195 13.35023,-13.35023h30.40891c0.70376,-0.00359 1.37635,-0.29074 1.86571,-0.79652c0.48936,-0.50578 0.75416,-1.18748 0.73453,-1.89098v-43.08727c0.00005,-3.63186 1.47021,-7.10903 4.07557,-9.63936c2.60535,-2.53032 6.12399,-3.89829 9.7543,-3.79224zM86.12401,15.43016c-4.75486,0 -8.62349,3.72609 -8.62349,8.30592c0,4.57984 3.86863,8.30592 8.62349,8.30592c4.75486,0 8.62283,-3.72609 8.62283,-8.30592c0,-4.57984 -3.86797,-8.30592 -8.62283,-8.30592zM86.12401,20.80516c1.79122,0 3.24783,1.31473 3.24783,2.93092c0,1.6162 -1.45695,2.93092 -3.24783,2.93092c-1.79122,0 -3.24849,-1.31506 -3.24849,-2.93092c0,-1.61586 1.45727,-2.93092 3.24849,-2.93092zM32.92188,102.125h106.15625v59.125h-20.9482l-12.66524,-22.16138c-0.47599,-0.83268 -1.35967,-1.34857 -2.31879,-1.35371c-0.95911,-0.00514 -1.84827,0.50125 -2.33316,1.32878l-12.99396,22.18631h-22.64691v-14.78125c0,-1.48427 -1.20323,-2.6875 -2.6875,-2.6875c-1.48427,0 -2.6875,1.20323 -2.6875,2.6875v14.78125h-10.07812v-24.85937c0,-1.48427 -1.20323,-2.6875 -2.6875,-2.6875c-1.48427,0 -2.6875,1.20323 -2.6875,2.6875v24.85938h-11.42187z"></path></g></g></svg>