<svg version="1.1" xmlns="http://www.w3.org/2000/svg" xmlns:xlink="http://www.w3.org/1999/xlink" viewBox="0 0 172 172"><g fill="none" fill-rule="nonzero" stroke="none" stroke-width="1" stroke-linecap="butt" stroke-linejoin="miter" stroke-miterlimit="10" stroke-dasharray="" stroke-dashoffset="0" font-family="none" font-weight="none" font-size="none" text-anchor="none" style="mix-blend-mode: normal"><path d="M0,172v-172h172v172z" fill="none"></path><g fill="#666666"><path d="M38.7,19.35v4.3h-12.9v124.7h12.9v4.3h107.5v-101.94023l-31.35976,-31.35977zM43,23.65h68.8v30.1h30.1v94.6h-98.9zM116.1,26.69024l22.75977,22.75976h-22.75977zM30.1,27.95h8.6v116.1h-8.6zM53.75,27.95c-1.18418,0 -2.15,0.96582 -2.15,2.15c0,1.18418 0.96582,2.15 2.15,2.15c1.18418,0 2.15,-0.96582 2.15,-2.15c0,-1.18418 -0.96582,-2.15 -2.15,-2.15zM53.75,36.55c-1.18418,0 -2.15,0.96582 -2.15,2.15c0,1.18418 0.96582,2.15 2.15,2.15c1.18418,0 2.15,-0.96582 2.15,-2.15c0,-1.18418 -0.96582,-2.15 -2.15,-2.15zM53.75,45.15c-1.18418,0 -2.15,0.96582 -2.15,2.15c0,1.18418 0.96582,2.15 2.15,2.15c1.18418,0 2.15,-0.96582 2.15,-2.15c0,-1.18418 -0.96582,-2.15 -2.15,-2.15zM53.75,53.75c-1.18418,0 -2.15,0.96582 -2.15,2.15c0,1.18418 0.96582,2.15 2.15,2.15c1.18418,0 2.15,-0.96582 2.15,-2.15c0,-1.18418 -0.96582,-2.15 -2.15,-2.15zM53.75,62.35c-1.18418,0 -2.15,0.96582 -2.15,2.15c0,1.18418 0.96582,2.15 2.15,2.15c1.18418,0 2.15,-0.96582 2.15,-2.15c0,-1.18418 -0.96582,-2.15 -2.15,-2.15zM53.75,70.95c-1.18418,0 -2.15,0.96582 -2.15,2.15c0,1.18418 0.96582,2.15 2.15,2.15c1.18418,0 2.15,-0.96582 2.15,-2.15c0,-1.18418 -0.96582,-2.15 -2.15,-2.15zM66.65,73.1v4.3h58.05v-4.3zM53.75,79.55c-1.18418,0 -2.15,0.96582 -2.15,2.15c0,1.18418 0.96582,2.15 2.15,2.15c1.18418,0 2.15,-0.96582 2.15,-2.15c0,-1.18418 -0.96582,-2.15 -2.15,-2.15zM66.65,86v4.3h49.45v-4.3zM53.75,88.15c-1.18418,0 -2.15,0.96582 -2.15,2.15c0,1.18418 0.96582,2.15 2.15,2.15c1.18418,0 2.15,-0.96582 2.15,-2.15c0,-1.18418 -0.96582,-2.15 -2.15,-2.15zM53.75,96.75c-1.18418,0 -2.15,0.96582 -2.15,2.15c0,1.18418 0.96582,2.15 2.15,2.15c1.18418,0 2.15,-0.96582 2.15,-2.15c0,-1.18418 -0.96582,-2.15 -2.15,-2.15zM66.65,98.9v4.3h58.05v-4.3zM53.75,105.35c-1.18418,0 -2.15,0.96582 -2.15,2.15c0,1.18418 0.96582,2.15 2.15,2.15c1.18418,0 2.15,-0.96582 2.15,-2.15c0,-1.18418 -0.96582,-2.15 -2.15,-2.15zM66.65,111.8v4.3h49.45v-4.3zM53.75,113.95c-1.18418,0 -2.15,0.96582 -2.15,2.15c0,1.18418 0.96582,2.15 2.15,2.15c1.18418,0 2.15,-0.96582 2.15,-2.15c0,-1.18418 -0.96582,-2.15 -2.15,-2.15zM53.75,122.55c-1.18418,0 -2.15,0.96582 -2.15,2.15c0,1.18418 0.96582,2.15 2.15,2.15c1.18418,0 2.15,-0.96582 2.15,-2.15c0,-1.18418 -0.96582,-2.15 -2.15,-2.15zM53.75,131.15c-1.18418,0 -2.15,0.96582 -2.15,2.15c0,1.18418 0.96582,2.15 2.15,2.15c1.18418,0 2.15,-0.96582 2.15,-2.15c0,-1.18418 -0.96582,-2.15 -2.15,-2.15zM53.75,139.75c-1.18418,0 -2.15,0.96582 -2.15,2.15c0,1.18418 0.96582,2.15 2.15,2.15c1.18418,0 2.15,-0.96582 2.15,-2.15c0,-1.18418 -0.96582,-2.15 -2.15,-2.15z"></path></g></g></svg>