<svg version="1.1" xmlns="http://www.w3.org/2000/svg" xmlns:xlink="http://www.w3.org/1999/xlink" viewBox="0 0 172 172"><g fill="none" fill-rule="nonzero" stroke="none" stroke-width="1" stroke-linecap="butt" stroke-linejoin="miter" stroke-miterlimit="10" stroke-dasharray="" stroke-dashoffset="0" font-family="none" font-weight="none" font-size="none" text-anchor="none" style="mix-blend-mode: normal"><path d="M0,172v-172h172v172z" fill="none"></path><g fill="#ecf0f1"><path d="M65.36084,5.54297c-6.74436,0.20251 -13.15812,2.96735 -17.93591,7.73181l-16.60791,16.60791c-2.26166,2.25095 -3.52976,5.31252 -3.5221,8.50342c-0.00026,4.33963 -3.51816,7.85753 -7.85779,7.85779c-3.19119,-0.00916 -6.25332,1.25917 -8.50342,3.5221l-1.38049,1.38049l-8.23572,8.24621c-1.04926,1.04949 -1.04926,2.75081 0,3.80029l22.64954,22.64954c1.04949,1.04926 2.7508,1.04926 3.80029,0l8.23047,-8.23047l0.64038,-0.64038c2.74528,-2.73076 4.28224,-6.44745 4.26746,-10.31958c-0.0009,-1.78788 0.89655,-3.4566 2.3887,-4.4415c1.49215,-0.9849 3.37931,-1.15419 5.02292,-0.45059l8.90234,3.81604l48.1283,52.13855c-0.07371,0.40004 -0.11235,0.80576 -0.11548,1.21252c-0.00471,1.83423 0.72492,3.59405 2.02612,4.88684l41.38855,41.38855c1.29526,1.30072 3.05645,2.03014 4.89209,2.02612c1.83412,0.00411 3.59371,-0.72543 4.88684,-2.02612l10.4823,-10.4823c1.29738,-1.29644 2.02632,-3.05536 2.02632,-4.88946c0,-1.83411 -0.72894,-3.59302 -2.02632,-4.88946l-0.00525,-0.0105l-41.38855,-41.38855c-1.59938,-1.59427 -3.87626,-2.30751 -6.09937,-1.91065l-51.93909,-47.93408l-5.00757,-21.70471c-0.62169,-2.6944 0.16643,-5.52018 2.09286,-7.50389c1.92643,-1.98372 4.72791,-2.85428 7.43937,-2.31178l13.10681,2.62451c0.98945,0.19905 2.007,-0.17303 2.63465,-0.96341c0.62765,-0.79037 0.75956,-1.86576 0.34155,-2.7844l-0.32019,-0.71912c-3.60919,-7.6642 -10.7614,-13.05928 -19.12219,-14.42432c-1.74352,-0.29822 -3.5125,-0.42131 -5.28052,-0.36743zM144.37439,5.82117c-0.01925,0.00165 -0.0385,0.0034 -0.05774,0.00525l-15.65784,0.8241c-7.21749,0.3806 -13.79346,4.26435 -17.61134,10.40119c-3.81787,6.13684 -4.39574,13.75216 -1.5476,20.39483l1.81616,4.23071l-21.84119,21.84644c-1.02337,1.05378 -1.01107,2.73399 0.02762,3.77267c1.03869,1.03869 2.71889,1.05099 3.77267,0.02762l23.1272,-23.13245c0.77622,-0.77584 1.00272,-1.94571 0.57214,-2.9552l-2.53003,-5.91565c-2.15528,-5.02996 -1.71607,-10.79579 1.17623,-15.44125c2.8923,-4.64546 7.87251,-7.58403 13.33732,-7.86966l15.65784,-0.8241c0.17223,-0.03099 0.34,0.0733 0.38843,0.24145c0.08305,0.15029 0.05029,0.33812 -0.07874,0.45142l-15.21692,15.21167c-1.04926,1.04949 -1.04926,2.75081 0,3.80029l11.40088,11.40088c1.04949,1.04926 2.75081,1.04926 3.80029,0l15.20642,-15.20642c0.11827,-0.11868 0.29731,-0.15248 0.45071,-0.08508c0.15339,0.0674 0.2496,0.22214 0.24217,0.38953l-0.8241,15.66309c-0.28564,5.46481 -3.22421,10.44502 -7.86966,13.33732c-4.64546,2.8923 -10.41129,3.33151 -15.44125,1.17623l-5.91565,-2.53003c-1.00844,-0.4319 -2.17816,-0.20752 -2.9552,0.56689l-23.1272,23.12195c-0.69552,0.67545 -0.97332,1.67316 -0.72696,2.61087c0.24636,0.93771 0.97868,1.67003 1.91639,1.91639c0.93771,0.24636 1.93542,-0.03144 2.61087,-0.72696l21.84644,-21.84643l4.23071,1.81616c6.64355,2.84704 14.25911,2.26797 20.3958,-1.55085c6.13669,-3.81883 10.02002,-10.39545 10.40022,-17.61333l0.82409,-15.65259c0.12538,-2.38937 -1.23416,-4.60905 -3.41958,-5.58306c-2.18542,-0.97402 -4.74504,-0.50105 -6.43808,1.18963l-13.30627,13.30627l-7.60059,-7.60059l13.30627,-13.30627c1.68597,-1.68596 2.16386,-4.23408 1.20337,-6.41638c-0.96049,-2.1823 -3.16229,-3.55101 -5.54431,-3.44654zM66.24793,10.88123c1.1671,0.01092 2.33122,0.11978 3.4801,0.32544c4.86179,0.79957 9.27168,3.32696 12.41919,7.11768l-7.08618,-1.41724c-4.50161,-0.90164 -9.15319,0.54261 -12.35252,3.83529c-3.19933,3.29268 -4.50924,7.98386 -3.47854,12.45768l4.8606,21.05908l-5.89465,5.9104l-7.75806,-3.32788c-4.01524,-1.74052 -8.68668,-0.84497 -11.77356,2.25708c-2.01107,1.99845 -3.1394,4.71818 -3.13367,7.55335c0.00254,1.81681 -0.53657,3.59313 -1.54846,5.10205l-18.70227,-18.68127c1.17771,-0.9482 2.64525,-1.46333 4.15723,-1.45923c7.30755,-0.00174 13.23105,-5.92524 13.23279,-13.23279c-0.00382,-1.76567 0.69937,-3.45938 1.95264,-4.70312l16.60791,-16.60266c3.9631,-4.00922 9.3803,-6.24351 15.01746,-6.19385zM11.45337,56.83643l18.84924,18.84924l-4.43543,4.44592l-18.84924,-18.85449zM67.11926,58.83105l49.58228,45.77148l-8.39319,8.39319l-45.77148,-49.57178zM69.83826,84.20483c-0.70447,0.01809 -1.37365,0.31215 -1.8634,0.81885l-26.29761,26.29761l-4.23071,-1.81616c-6.64355,-2.84704 -14.25911,-2.26797 -20.3958,1.55085c-6.13669,3.81883 -10.02001,10.39545 -10.40022,17.61333l-0.8241,15.64734c-0.12538,2.38936 1.23416,4.60905 3.41958,5.58306c2.18542,0.97401 4.74504,0.50105 6.43808,-1.18963l13.30627,-13.30627l7.60059,7.60059l-13.30627,13.31152c-1.65191,1.65215 -2.14695,4.13622 -1.25456,6.29541c0.89239,2.15918 2.99673,3.56894 5.33305,3.57276h0.31494l15.65259,-0.8241c7.21843,-0.37897 13.79596,-4.26206 17.61504,-10.39916c3.81908,-6.1371 4.39754,-13.75337 1.54915,-20.39686l-1.81091,-4.23596l26.29236,-26.29236c1.02341,-1.05377 1.01113,-2.73402 -0.02757,-3.77272c-1.0387,-1.0387 -2.71895,-1.05098 -3.77272,-0.02757v-0.0105l-27.57837,27.58362c-0.77622,0.77584 -1.00272,1.94571 -0.57214,2.9552l2.53003,5.91565c2.15528,5.02996 1.71607,10.79579 -1.17623,15.44125c-2.8923,4.64546 -7.87251,7.58403 -13.33732,7.86966l-15.65784,0.8241c-0.17149,0.02722 -0.33694,-0.07563 -0.38843,-0.24146c-0.08305,-0.15029 -0.05029,-0.33812 0.07874,-0.45142l15.20642,-15.20117c1.04926,-1.04949 1.04926,-2.7508 0,-3.80029l-11.40088,-11.40088c-1.04949,-1.04926 -2.7508,-1.04926 -3.80029,0l-15.19592,15.19592c-0.11827,0.11868 -0.29731,0.15248 -0.45071,0.08508c-0.15339,-0.0674 -0.2496,-0.22214 -0.24217,-0.38953l0.8241,-15.66309c0.35702,-6.51187 4.45227,-12.22803 10.5033,-14.66052c4.1186,-1.66173 8.73112,-1.60502 12.80762,0.15747l5.91565,2.53003c1.00949,0.43057 2.17936,0.20408 2.9552,-0.57214l27.57837,-27.57837c0.79674,-0.76997 1.03928,-1.94999 0.61082,-2.97178c-0.42846,-1.0218 -1.44008,-1.67592 -2.54771,-1.64736zM122.64868,106.87537c0.40219,0.00486 0.78652,0.16688 1.0708,0.45142l41.38855,41.38855c0.28896,0.28882 0.45131,0.68062 0.45131,1.08917c0,0.40855 -0.16235,0.80035 -0.45131,1.08917l-0.00525,0.0105l-10.4823,10.4823c-0.60889,0.57844 -1.56421,0.57844 -2.1731,0l-41.38855,-41.38855c-0.28962,-0.28847 -0.45243,-0.6804 -0.45243,-1.08917c0,-0.40877 0.16281,-0.80071 0.45243,-1.08917l10.4823,-10.4928c0.29328,-0.29355 0.69262,-0.45631 1.10755,-0.45142z"></path></g></g></svg>