<svg version="1.1" xmlns="http://www.w3.org/2000/svg" xmlns:xlink="http://www.w3.org/1999/xlink" viewBox="0 0 172 172"><g fill="none" fill-rule="nonzero" stroke="none" stroke-width="1" stroke-linecap="butt" stroke-linejoin="miter" stroke-miterlimit="10" stroke-dasharray="" stroke-dashoffset="0" font-family="none" font-weight="none" font-size="none" text-anchor="none" style="mix-blend-mode: normal"><path d="M0,172v-172h172v172z" fill="none"></path><g fill="#cccccc"><path d="M158.73864,101.04937c0,1.58305 -1.2835,2.86655 -2.86655,2.86655c-1.58305,0 -2.86655,-1.2835 -2.86655,-2.86655v-31.58147c0,-2.07466 -1.68768,-3.76234 -3.76234,-3.76234c-2.07466,0 -3.76234,1.68768 -3.76234,3.76234v29.43156c0,1.58305 -1.2835,2.86655 -2.86655,2.86655c-1.58305,0 -2.86655,-1.2835 -2.86655,-2.86655v-36.59255c0,-2.01411 -1.49705,-3.72544 -3.40797,-3.89635c-2.25884,-0.20245 -4.11672,1.56621 -4.11672,3.74658v36.74233c0,1.58305 -1.2835,2.86655 -2.86655,2.86655c-1.58305,0 -2.86655,-1.2835 -2.86655,-2.86655v-29.6401c0,-2.17965 -1.85896,-3.95046 -4.11672,-3.74622c-1.91091,0.17092 -3.40797,1.88225 -3.40797,3.89635v8.03816c0,1.58305 -1.2835,2.86655 -2.86655,2.86655c-1.58305,0 -2.86655,-1.2835 -2.86655,-2.86655v-8.03816c0,-6.79515 6.93239,-11.70232 13.38857,-8.80675c0.34721,-2.08111 1.38168,-4.01245 2.95756,-5.45361c5.5697,-5.0935 14.58678,-1.9471 15.78357,5.65641c6.26878,-2.82068 13.3771,1.79948 13.3771,8.66235v31.58147zM168.59992,78.67275c-1.21219,-1.01727 -3.02098,-0.85889 -4.03825,0.35402c-1.01762,1.21291 -0.85889,3.02098 0.35402,4.03861c0.85638,0.71807 1.34728,1.76973 1.34728,2.88518v36.06367c0,3.20229 -1.10971,6.33758 -3.12454,8.82825c-2.83752,3.50758 -4.40015,7.92421 -4.40015,12.4358v25.8516c0,1.58305 1.2835,2.86655 2.86655,2.86655c1.58305,0 2.86655,-1.2835 2.86655,-2.86655v-25.8516c0,-3.20372 1.10971,-6.33973 3.12454,-8.83004c2.83752,-3.50758 4.40015,-7.92349 4.40015,-12.43401v-36.06367c0.00036,-2.81495 -1.23763,-5.46758 -3.39614,-7.27781zM119.68193,106.64523v-11.29491c0,-2.69635 -1.06779,-5.21353 -3.00772,-7.08718c-6.3193,-6.1036 -16.69979,-1.43901 -16.69979,7.27028v22.02691c0,15.15364 12.89946,15.81546 12.89946,28.14161v23.42793c0,1.58305 1.2835,2.86655 2.86655,2.86655c1.58305,0 2.86655,-1.2835 2.86655,-2.86655v-23.42793c0,-15.04543 -12.89946,-15.85846 -12.89946,-28.14161v-22.02691c0,-3.74658 4.33207,-5.70909 6.98327,-3.14675c0.81123,0.78364 1.25806,1.83638 1.25806,2.96365v13.81461c0,1.49526 1.28421,2.9916 2.9787,2.9916c6.26054,0 11.35404,5.0935 11.35404,11.35404v0.82987c0,1.58305 1.2835,2.86655 2.86655,2.86655c1.58305,0 2.86655,-1.2835 2.86655,-2.86655c0,-10.09741 -6.72994,-16.45828 -14.33274,-17.6952zM53.03471,69.46791v1.9102c0,1.58305 1.2835,2.86655 2.86655,2.86655c1.58305,0 2.86655,-1.2835 2.86655,-2.86655v-1.9102c0,-6.87362 -7.12086,-11.4773 -13.3771,-8.66235c-1.19607,-7.60029 -10.21064,-10.75242 -15.78357,-5.65641c-1.57553,1.44116 -2.61035,3.37249 -2.95756,5.45361c-6.45224,-2.89306 -13.38821,2.0073 -13.38821,8.80639v8.03816c0,1.58305 1.2835,2.86655 2.86655,2.86655c1.58305,0 2.86655,-1.2835 2.86655,-2.86655v-8.03816c0,-2.01411 1.49705,-3.72544 3.40797,-3.89635c2.24558,-0.20352 4.11672,1.55367 4.11672,3.74622v29.63974c0,1.58305 1.2835,2.86655 2.86655,2.86655c1.58305,0 2.86655,-1.2835 2.86655,-2.86655v-36.74161c0,-2.18001 1.85752,-3.94903 4.11672,-3.74658c1.91091,0.17092 3.40797,1.88225 3.40797,3.89635v36.59255c0,1.58305 1.2835,2.86655 2.86655,2.86655c1.58305,0 2.86655,-1.2835 2.86655,-2.86655v-29.43156c0,-2.07466 1.68768,-3.76234 3.76234,-3.76234c2.07466,0 3.76234,1.68768 3.76234,3.76234zM19.7111,106.64523v-11.29491c0,-2.69635 -1.06779,-5.21353 -3.00772,-7.08718c-6.31142,-6.09679 -16.69979,-1.45262 -16.69979,7.27028v22.02691c0,15.15364 12.89946,15.81546 12.89946,28.14161v23.42793c0,1.58305 1.2835,2.86655 2.86655,2.86655c1.58305,0 2.86655,-1.2835 2.86655,-2.86655v-23.42793c0,-15.04543 -12.89946,-15.85846 -12.89946,-28.14161v-22.02691c0,-3.74729 4.33135,-5.70837 6.98327,-3.14675c0.81123,0.78364 1.25806,1.83638 1.25806,2.96365v13.81461c0,1.49526 1.28421,2.9916 2.9787,2.9916c6.26054,0 11.35404,5.0935 11.35404,11.35404v0.82987c0,1.58305 1.2835,2.86655 2.86655,2.86655c1.58305,0 2.86655,-1.2835 2.86655,-2.86655c0,-10.09741 -6.72994,-16.45828 -14.33274,-17.6952zM2.87013,39.41861h166.25974c1.58305,0 2.86655,-1.2835 2.86655,-2.86655c0,-1.58305 -1.2835,-2.86655 -2.86655,-2.86655h-161.02901l7.93532,-12.43222c0.60054,-0.94059 0.60054,-2.14382 0,-3.0844l-7.93532,-12.43222h155.79863l-7.93532,12.43222c-0.85172,1.33438 -0.46044,3.10662 0.87358,3.9587c1.33545,0.85208 3.1077,0.46044 3.9587,-0.87394l10.74955,-16.84096c1.21685,-1.9059 -0.15623,-4.40875 -2.41614,-4.40875h-166.25974c-2.26099,0 -3.63263,2.50357 -2.41614,4.40875l9.76489,15.2984l-9.76489,15.29876c-1.21685,1.9059 0.15587,4.40875 2.41614,4.40875zM103.19928,69.46791v2.46523c0,1.58305 1.2835,2.86655 2.86655,2.86655c1.58305,0 2.86655,-1.2835 2.86655,-2.86655v-2.46523c0,-6.87362 -7.12086,-11.4773 -13.3771,-8.66235c-1.19607,-7.60029 -10.21064,-10.75242 -15.78357,-5.65641c-1.57553,1.44116 -2.61035,3.37249 -2.95756,5.45361c-6.45152,-2.89306 -13.38821,2.00694 -13.38821,8.80639v8.03816c0,1.58305 1.2835,2.86655 2.86655,2.86655c1.58305,0 2.86655,-1.2835 2.86655,-2.86655v-8.03816c0,-2.01411 1.49705,-3.72544 3.40797,-3.89635c2.25203,-0.20424 4.11672,1.56191 4.11672,3.74622v29.63974c0,1.58305 1.2835,2.86655 2.86655,2.86655c1.58305,0 2.86655,-1.2835 2.86655,-2.86655v-36.74161c0,-2.17607 1.85466,-3.94939 4.11672,-3.74658c1.91091,0.17092 3.40797,1.88225 3.40797,3.89635v36.59255c0,1.58305 1.2835,2.86655 2.86655,2.86655c1.58305,0 2.86655,-1.2835 2.86655,-2.86655v-29.43156c0,-2.07466 1.68768,-3.76234 3.76234,-3.76234c2.07466,0 3.76234,1.68768 3.76234,3.76234zM69.87567,106.64523v-11.29491c0,-2.69635 -1.06779,-5.21353 -3.00772,-7.08718c-6.31142,-6.09679 -16.69979,-1.45262 -16.69979,7.27028v22.02691c0,15.15364 12.89946,15.81546 12.89946,28.14161v23.42793c0,1.58305 1.2835,2.86655 2.86655,2.86655c1.58305,0 2.86655,-1.2835 2.86655,-2.86655v-23.42793c0,-15.04543 -12.89946,-15.85846 -12.89946,-28.14161v-22.02691c0,-3.74729 4.33135,-5.70837 6.98327,-3.14675c0.81123,0.78364 1.25806,1.83638 1.25806,2.96365v13.81461c0,1.49526 1.28421,2.9916 2.9787,2.9916c6.26054,0 11.35404,5.0935 11.35404,11.35404v0.82987c0,1.58305 1.2835,2.86655 2.86655,2.86655c1.58305,0 2.86655,-1.2835 2.86655,-2.86655c0,-10.09741 -6.72994,-16.45828 -14.33274,-17.6952z"></path></g></g></svg>