<svg version="1.1" xmlns="http://www.w3.org/2000/svg" xmlns:xlink="http://www.w3.org/1999/xlink" viewBox="0 0 172 172"><g fill="none" fill-rule="nonzero" stroke="none" stroke-width="1" stroke-linecap="butt" stroke-linejoin="miter" stroke-miterlimit="10" stroke-dasharray="" stroke-dashoffset="0" font-family="none" font-weight="none" font-size="none" text-anchor="none" style="mix-blend-mode: normal"><path d="M0,172v-172h172v172z" fill="none"></path><g fill="#e74c3c"><path d="M45.6396,3.69531c-0.53068,0.00443 -1.03748,0.2212 -1.40722,0.60191c-0.36973,0.38071 -0.5716,0.89363 -0.56051,1.42421v24.97748c-0.00556,0.51636 0.20271,1.01201 0.57541,1.36943c0.3727,0.35742 0.87664,0.54476 1.39231,0.51759h4.07915v21.60564c0,1.1133 1.00337,1.90999 2.11667,1.90999h7.23315l-18.24888,54.54982c-0.21528,0.64361 -0.09223,1.35234 0.32741,1.88571l43.26901,54.98746c0.38217,0.48557 0.96596,0.76902 1.58389,0.76902c0.61793,0 1.20172,-0.28344 1.58389,-0.76902l43.26901,-54.98746c0.42991,-0.54632 0.54795,-1.27563 0.31232,-1.92967l-19.63725,-54.50586h8.63661c1.1133,0 2.11667,-0.79669 2.11667,-1.90999v-21.60564h4.07915c0.51567,0.02716 1.01961,-0.16018 1.39231,-0.51759c0.3727,-0.35742 0.58097,-0.85308 0.57541,-1.36943v-24.97748c0.01109,-0.53058 -0.19078,-1.04351 -0.56051,-1.42421c-0.36973,-0.38071 -0.87654,-0.59748 -1.40722,-0.60191zM47.70313,7.72656h76.59375v20.82813h-76.59375zM53.75,32.58594h64.5v19.48438h-38.96875c-1.1132,0 -2.01562,0.90243 -2.01562,2.01563c0,1.1132 0.90243,2.01563 2.01563,2.01563h27.96155l19.75076,54.8208l-38.97793,49.53503v-58.11719c3.70344,-1.00982 6.08808,-4.6043 5.57867,-8.40899c-0.50941,-3.8047 -3.75564,-6.64526 -7.59429,-6.64526c-3.83865,0 -7.08488,2.84056 -7.59429,6.64526c-0.50941,3.8047 1.87522,7.39918 5.57867,8.40899v58.11719l-38.99631,-49.55865l18.33156,-54.79718h1.85225c1.1132,0 2.01563,-0.90243 2.01563,-2.01562c0,-1.1132 -0.90243,-2.01562 -2.01562,-2.01562h-11.42187zM69.86385,59.77785c-0.88349,-0.02001 -1.67698,0.5378 -1.95723,1.3759l-1.07867,3.22487c-0.24061,0.68609 -0.09308,1.4486 0.38609,1.99543c0.47916,0.54683 1.21569,0.79322 1.92744,0.6448c0.71175,-0.14843 1.28841,-0.66866 1.50907,-1.36143l1.07868,-3.22487c0.16961,-0.50699 0.13085,-1.0606 -0.10774,-1.53902c-0.23859,-0.47842 -0.65748,-0.84245 -1.16449,-1.01201c-0.19141,-0.06406 -0.39135,-0.099 -0.59314,-0.10367zM66.72821,69.1467c-0.88349,-0.02001 -1.67698,0.5378 -1.95723,1.3759l-9.99283,29.87088c-0.24061,0.68609 -0.09308,1.4486 0.38609,1.99543c0.47916,0.54683 1.21569,0.79322 1.92744,0.6448c0.71175,-0.14843 1.28841,-0.66866 1.50907,-1.36143l9.99349,-29.87088c0.16961,-0.507 0.13085,-1.0606 -0.10774,-1.53902c-0.23859,-0.47842 -0.65748,-0.84245 -1.16449,-1.01201c-0.19162,-0.06412 -0.39179,-0.09907 -0.5938,-0.10367zM85.8924,91.36319c0.97886,-0.035 1.92992,0.32931 2.63491,1.0093c0.70499,0.67999 1.10336,1.61729 1.10371,2.59678c-0.00758,1.99891 -1.63209,3.61432 -3.63101,3.61067c-1.96262,-0.01384 -3.55453,-1.5933 -3.58379,-3.55574c-0.02926,-1.96245 1.51486,-3.58866 3.47619,-3.66101z"></path></g></g></svg>