<svg version="1.1" xmlns="http://www.w3.org/2000/svg" xmlns:xlink="http://www.w3.org/1999/xlink" viewBox="0 0 172 172"><g fill="none" fill-rule="nonzero" stroke="none" stroke-width="1" stroke-linecap="butt" stroke-linejoin="miter" stroke-miterlimit="10" stroke-dasharray="" stroke-dashoffset="0" font-family="none" font-weight="none" font-size="none" text-anchor="none" style="mix-blend-mode: normal"><path d="M0,172v-172h172v172z" fill="none"></path><g fill="#666666"><path d="M86,3.44c-32.02156,0 -58.42625,24.38906 -61.5975,55.5775c-3.14437,1.02125 -5.64375,3.52063 -6.665,6.665c-4.90469,0.98094 -9.16437,4.34031 -12.1475,8.815c-3.56094,5.33469 -5.59,12.3625 -5.59,20.1025c0,7.74 2.02906,14.76781 5.59,20.1025c2.98313,4.47469 7.24281,7.83406 12.1475,8.815c1.34375,4.13875 5.21375,7.2025 9.7825,7.2025c5.65719,0 10.32,-4.66281 10.32,-10.32v-51.6c0,-4.27312 -2.70094,-7.90125 -6.45,-9.46c3.01,-27.57375 26.23,-49.02 54.61,-49.02c28.38,0 51.6,21.44625 54.61,49.02c-3.74906,1.55875 -6.45,5.18688 -6.45,9.46v51.6c0,4.39406 2.86219,8.08938 6.7725,9.5675c-0.47031,6.57094 -2.70094,11.51594 -6.235,15.05c-3.99094,3.99094 -9.82281,6.3425 -17.7375,6.3425h-10.965c-1.43781,-3.9775 -5.22719,-6.88 -9.675,-6.88h-17.2c-5.65719,0 -10.32,4.66281 -10.32,10.32c0,5.65719 4.66281,10.32 10.32,10.32h17.2c4.44781,0 8.23719,-2.9025 9.675,-6.88h10.965c9.28531,0 17.21344,-2.80844 22.6825,-8.2775c4.91813,-4.91812 7.65938,-11.79812 8.17,-19.8875c3.03688,-1.06156 5.45563,-3.49375 6.45,-6.5575c4.90469,-0.98094 9.16438,-4.34031 12.1475,-8.815c3.56094,-5.33469 5.59,-12.3625 5.59,-20.1025c0,-7.74 -2.02906,-14.76781 -5.59,-20.1025c-2.98312,-4.47469 -7.24281,-7.83406 -12.1475,-8.815c-1.02125,-3.14437 -3.52062,-5.64375 -6.665,-6.665c-3.17125,-31.18844 -29.57594,-55.5775 -61.5975,-55.5775zM27.52,65.36c1.935,0 3.44,1.505 3.44,3.44v51.6c0,1.935 -1.505,3.44 -3.44,3.44c-1.935,0 -3.44,-1.505 -3.44,-3.44v-51.6c0,-1.935 1.505,-3.44 3.44,-3.44zM144.48,65.36c1.935,0 3.44,1.505 3.44,3.44v51.6c0,1.935 -1.505,3.44 -3.44,3.44c-1.935,0 -3.44,-1.505 -3.44,-3.44v-51.6c0,-1.935 1.505,-3.44 3.44,-3.44zM17.2,72.9925v43.215c-2.13656,-0.91375 -4.16562,-2.64719 -5.9125,-5.2675c-2.66062,-3.99094 -4.4075,-9.83625 -4.4075,-16.34c0,-6.50375 1.74688,-12.34906 4.4075,-16.34c1.74688,-2.62031 3.77594,-4.35375 5.9125,-5.2675zM154.8,72.9925c2.13656,0.91375 4.16563,2.64719 5.9125,5.2675c2.66063,3.99094 4.4075,9.83625 4.4075,16.34c0,6.50375 -1.74687,12.34906 -4.4075,16.34c-1.74687,2.62031 -3.77594,4.35375 -5.9125,5.2675zM79.12,151.36h17.2c1.935,0 3.44,1.505 3.44,3.44c0,1.935 -1.505,3.44 -3.44,3.44h-17.2c-1.935,0 -3.44,-1.505 -3.44,-3.44c0,-1.935 1.505,-3.44 3.44,-3.44z"></path></g></g></svg>